<?xml version="1.0" encoding="utf-8"?>
<!-- Generator: Adobe Illustrator 28.1.0, SVG Export Plug-In . SVG Version: 6.00 Build 0)  -->
<svg version="1.1" id="Warstwa_2_00000108279302365296476990000001950799250653755808_"
	 xmlns="http://www.w3.org/2000/svg" xmlns:xlink="http://www.w3.org/1999/xlink" x="0px" y="0px" viewBox="0 0 355.8 87.5"
	 style="enable-background:new 0 0 355.8 87.5;" xml:space="preserve">
<style type="text/css">
	.st0{fill:#060707;}
	.st1{fill:#020202;}
</style>
<g>
	<g>
		<path d="M124.2,77v6.3c0,0.8-0.1,1.3-0.2,1.7c-0.1,0.4-0.3,0.8-0.5,1.1c-0.5,0.6-1.1,0.9-2,0.9c-0.6,0-1.2-0.2-1.7-0.5l0.7-1.3
			c0.4,0.2,0.7,0.4,1,0.4c0.4,0,0.7-0.2,0.9-0.5c0.2-0.3,0.3-0.9,0.3-1.7V77H124.2z"/>
		<path d="M142.3,78.4h-3.9v2.3h3.8v1.4h-3.8v3.3h3.9v1.4h-5.4V77h5.4V78.4z"/>
		<path d="M155,77l2.5,6.5l2.6-7l2.5,7l2.7-6.5h1.6l-4.3,10.3l-2.5-6.9l-2.6,6.9L153.4,77H155z"/>
		<path d="M183.9,78.4H180v2.3h3.8v1.4H180v3.3h3.9v1.4h-5.4V77h5.4V78.4z"/>
		<path d="M197.6,77v8.4h2.9v1.4h-4.3V77H197.6z"/>
		<path d="M215.5,82.6l3,4.1h-1.8l-2.8-4h-0.3v4h-1.5V77h1.7c1.3,0,2.2,0.2,2.8,0.7c0.6,0.5,0.9,1.2,0.9,2.1c0,0.7-0.2,1.3-0.6,1.8
			C216.7,82.2,216.2,82.5,215.5,82.6z M213.7,81.5h0.5c1.4,0,2.1-0.5,2.1-1.6c0-1-0.7-1.5-2-1.5h-0.5V81.5z"/>
		<path d="M231.8,82.6l-3.2-5.5h1.7l2.2,3.9l2.2-3.9h1.7l-3.2,5.5v4.2h-1.5V82.6z"/>
	</g>
	<path class="st0" d="M18.6,0.6c3.9,0,6.5,1,9.3,2.9c1,0.6,1.7,1.2,2.6,1.2c1.1,0,1.4-0.9,1.8-3C32.4,1.1,32.6,1,33.1,1
		c0.6,0,0.7,0.2,0.7,0.8v15c0,0.2-0.3,0.4-0.7,0.4s-0.6-0.1-0.7-0.4C30.9,7.2,26.9,1.9,18.6,1.9c-5.5,0-10,3.5-10,9.5
		c0,6.7,3.9,9.5,12.4,12.8c10.8,4.3,15.3,8.9,15.3,15.7c0,8.4-6.5,14.2-16.2,14.2c-3.3,0-6.8-0.6-10.9-3c-1.1-0.6-1.9-1-2.9-1
		c-1.4,0-2.2,0.9-2.6,3c-0.1,0.6-0.2,0.7-0.8,0.7c-0.6,0-0.7-0.2-0.7-0.8v-18c0-0.2,0.2-0.4,0.7-0.4c0.5,0,0.7,0.2,0.7,0.4
		c1.5,11.6,6.1,17.9,16.4,17.9c6.7,0,12.4-3.5,12.4-10.5c0-6.9-4.8-10.3-14.1-14C8.7,24.6,4.7,19.9,4.7,13.6
		C4.7,6.2,11.3,0.6,18.6,0.6z"/>
	<path class="st1" d="M138.3,0.6c3.9,0,6.5,1,9.3,2.9c1,0.6,1.7,1.2,2.6,1.2c1.1,0,1.4-0.9,1.8-3c0.1-0.6,0.2-0.7,0.8-0.7
		c0.6,0,0.7,0.2,0.7,0.8v15c0,0.2-0.3,0.4-0.7,0.4s-0.6-0.1-0.7-0.4c-1.5-9.6-5.5-14.9-13.8-14.9c-5.5,0-10,3.5-10,9.5
		c0,6.7,3.9,9.5,12.4,12.8C151.4,28.5,156,33.2,156,40c0,8.4-6.5,14.2-16.2,14.2c-3.3,0-6.8-0.6-10.9-3c-1.1-0.6-1.9-1-2.9-1
		c-1.4,0-2.2,0.9-2.6,3c-0.1,0.6-0.2,0.7-0.8,0.7c-0.6,0-0.7-0.2-0.7-0.8v-18c0-0.2,0.2-0.4,0.7-0.4c0.5,0,0.7,0.2,0.7,0.4
		c1.5,11.6,6.1,17.9,16.4,17.9c6.7,0,12.4-3.5,12.4-10.5c0-6.9-4.8-10.3-14.1-14c-9.6-3.8-13.6-8.5-13.6-14.8
		C124.5,6.2,131,0.6,138.3,0.6z"/>
	<path class="st1" d="M171.4,52.2h4.6c1.1,0,1.3-0.1,1.3-1.2V3.9c0-1.1-0.2-1.2-1.3-1.2h-4.4c-0.3,0-0.5-0.1-0.5-0.6
		s0.2-0.6,0.5-0.6h36.3c1.1,0,1.3,0.3,1.3,1.3v13c0,0.4-0.2,0.5-0.7,0.5c-0.4,0-0.7-0.1-0.7-0.5c-0.7-9.6-3-13-11.5-13h-12.8
		c-1.1,0-1.3,0.1-1.3,1.2v21.1h5.9c6.7,0,7.7-2.8,8.3-8.5c0-0.4,0.2-0.5,0.7-0.5s0.7,0.1,0.7,0.5v18.4c0,0.4-0.2,0.6-0.7,0.6
		s-0.7-0.2-0.7-0.6c-0.5-5.7-1.6-8.6-8.3-8.6h-5.9V51c0,1.1,0.2,1.2,1.3,1.2h12c10.4,0,12-2.4,13-15c0-0.4,0.3-0.5,0.7-0.5
		c0.5,0,0.7,0.1,0.7,0.5v15c0,1-0.2,1.3-1.3,1.3h-37.1c-0.3,0-0.5-0.1-0.5-0.6C171,52.3,171.1,52.2,171.4,52.2z"/>
	<path class="st1" d="M234.2,52.2h8.4c1.1,0,1.3-0.1,1.3-1.2V2.7h-3.3c-11.8,0-12.8,1.1-14.3,15.4c0,0.3-0.4,0.4-0.7,0.4
		s-0.7-0.1-0.7-0.4V2.7c0-1,0.2-1.3,1.3-1.3h40.3c1.1,0,1.3,0.3,1.3,1.3V18c0,0.4-0.4,0.4-0.7,0.4c-0.4,0-0.7-0.1-0.7-0.4
		C264.9,3.8,263.8,2.7,252,2.7h-3.3V51c0,1.1,0.2,1.2,1.3,1.2h8.4c0.3,0,0.5,0.1,0.5,0.6c0,0.6-0.2,0.6-0.5,0.6h-24.2
		c-0.3,0-0.5-0.1-0.5-0.6C233.7,52.3,233.9,52.2,234.2,52.2z"/>
	<path class="st1" d="M289.8,52.2h8.4c1.1,0,1.3-0.1,1.3-1.2V2.7h-3.3c-11.8,0-12.8,1.1-14.3,15.4c0,0.3-0.4,0.4-0.7,0.4
		s-0.7-0.1-0.7-0.4V2.7c0-1,0.2-1.3,1.3-1.3H322c1.1,0,1.3,0.3,1.3,1.3V18c0,0.4-0.4,0.4-0.7,0.4c-0.4,0-0.7-0.1-0.7-0.4
		c-1.4-14.2-2.5-15.4-14.3-15.4h-3.3V51c0,1.1,0.2,1.2,1.3,1.2h8.4c0.3,0,0.5,0.1,0.5,0.6c0,0.6-0.2,0.6-0.5,0.6h-24.2
		c-0.3,0-0.5-0.1-0.5-0.6C289.3,52.3,289.5,52.2,289.8,52.2z"/>
	<path class="st1" d="M337,52.2h4.6c1.1,0,1.3-0.1,1.3-1.2V3.9c0-1.1-0.2-1.2-1.3-1.2h-4.3c-0.3,0-0.5-0.1-0.5-0.6s0.2-0.6,0.5-0.6
		h16.1c0.3,0,0.5,0.1,0.5,0.6s-0.2,0.6-0.5,0.6h-4.3c-1.1,0-1.3,0.1-1.3,1.2V51c0,1.1,0.2,1.2,1.3,1.2h4.6c0.3,0,0.5,0.1,0.5,0.6
		c0,0.6-0.2,0.6-0.5,0.6H337c-0.3,0-0.5-0.1-0.5-0.6C336.6,52.4,336.7,52.2,337,52.2z"/>
	<g>
		<g>
			<path d="M108.5,1l8.8,9.1c0,0,0.6,0.6,0.6,0.6l-0.6,0.7l-18.1,22L81,55.4L80,56.5l-0.9-1.1C68.7,42.3,53.7,24.2,43.6,11.1
				c0,0-0.3-0.4-0.3-0.4c1.3-1.8,2.6-3.7,3.9-5.5c1.2-1.7,2.4-3.4,3.7-5l0.2,0.1c-2,3.6-4.1,7.2-6.3,10.8c0,0,0-0.9,0-0.9
				c6.2,7.1,12.2,14.5,18.2,21.8L81,53.9l-1.8,0c9-11,27.4-32.9,36.5-43.8c0,0,0,1.4,0,1.4L108.5,1L108.5,1z"/>
		</g>
		<g>
			<polygon points="79.1,52.9 97.3,9.7 97.4,10.6 91.3,0.8 91.6,0.6 99,9.5 99.3,9.9 99.1,10.4 80.9,53.6 79.1,52.9 			"/>
		</g>
		<g>
			<polygon points="70.9,0.6 62.7,12 62.8,11 80.9,53 79.1,53.8 61.1,11.7 60.8,11.2 61.2,10.7 70.7,0.5 70.9,0.6 			"/>
		</g>
	</g>
</g>
</svg>
